<?xml version="1.0" standalone="no"?>
<!DOCTYPE svg PUBLIC "-//W3C//DTD SVG 20010904//EN"
 "http://www.w3.org/TR/2001/REC-SVG-20010904/DTD/svg10.dtd">
<svg version="1.0" xmlns="http://www.w3.org/2000/svg"
 width="1024.000000pt" height="1024.000000pt" viewBox="0 0 1024.000000 1024.000000"
 preserveAspectRatio="xMidYMid meet">

<g transform="translate(0.000000,1024.000000) scale(0.100000,-0.100000)"
fill="#000000" stroke="none">
<path d="M0 5120 l0 -5120 5120 0 5120 0 0 5120 0 5120 -5120 0 -5120 0 0
-5120z m6680 3630 l0 -200 190 0 190 0 0 -613 0 -614 -187 -6 c-104 -4 -587
-7 -1075 -7 l-888 0 0 200 0 200 -612 -2 -613 -3 -3 -197 -2 -198 -195 0 -195
0 0 200 0 201 -202 -1 -203 -2 -3 426 -2 426 205 0 205 0 0 195 0 195 1695 0
1695 0 0 -200z m-3810 -1645 l0 -195 -195 0 -195 0 0 195 0 195 195 0 195 0 0
-195z m1618 -400 l2 -585 -195 0 -195 0 0 395 0 395 -200 0 -200 0 0 188 c0
104 2 191 4 193 2 2 179 3 393 2 l388 -3 3 -585z m-808 -205 l0 -400 200 0
200 0 0 -205 0 -205 215 0 215 0 0 205 0 205 195 0 195 0 0 400 0 400 1275 0
1275 0 0 -400 0 -400 -200 0 -200 0 0 -200 0 -200 -195 0 -196 0 3 -210 3
-210 -437 0 -438 0 0 -195 0 -195 -440 0 -440 0 0 -205 0 -205 -195 0 -195 0
0 205 0 205 -615 0 -615 0 0 405 0 405 -199 0 -199 0 -5 53 c-2 28 -5 215 -6
415 l-1 362 200 0 200 0 0 185 0 185 200 0 200 0 0 -400z m3380 -1422 l-2
-203 196 -3 196 -2 0 -195 0 -195 205 0 205 0 0 -610 0 -610 -205 0 -205 0 0
-195 0 -195 -200 0 -200 0 0 -202 0 -203 -619 -2 -619 -3 -7 303 c-3 166 -5
347 -3 402 l3 100 213 0 212 -1 0 206 0 205 220 -3 220 -2 0 205 0 205 -225 0
-225 0 0 -205 0 -205 -215 0 -215 0 0 -205 0 -206 -195 1 -195 2 0 -404 0
-403 195 -3 195 -2 2 -196 3 -195 628 1 627 0 0 -600 0 -600 -625 0 -625 0 0
198 0 197 -232 0 -233 0 3 190 2 190 -202 0 -203 0 -3 203 -2 202 -210 0 -210
0 0 -200 0 -200 205 0 205 0 0 -385 0 -385 -615 -2 -615 -3 0 198 0 197 -202
0 -203 0 3 1205 2 1205 -200 0 -200 0 0 200 0 200 195 0 195 0 3 -197 c1 -109
3 -17 5 205 l2 402 408 0 408 0 0 -1010 -1 -1010 198 0 197 0 0 810 0 810 215
0 215 0 0 200 0 200 435 0 435 0 0 195 0 195 440 0 440 0 0 205 0 205 190 0
191 0 -1 -202z m-4180 -1808 l0 -400 -195 0 -195 0 0 400 0 400 195 0 195 0 0
-400z"/>
<path d="M6225 2865 c0 -214 1 -301 2 -192 2 109 2 285 0 390 -1 106 -2 17 -2
-198z"/>
<path d="M4115 1460 c0 -322 1 -453 2 -292 2 160 2 424 0 585 -1 160 -2 29 -2
-293z"/>
<path d="M5324 1845 c0 -110 2 -156 3 -103 2 53 2 143 0 200 -1 57 -3 13 -3
-97z"/>
<path d="M5794 1455 c0 -104 2 -146 3 -92 2 54 2 139 0 190 -1 51 -3 7 -3 -98z"/>
</g>
</svg>
