<?xml version="1.0" standalone="no"?>
<!DOCTYPE svg PUBLIC "-//W3C//DTD SVG 20010904//EN"
 "http://www.w3.org/TR/2001/REC-SVG-20010904/DTD/svg10.dtd">
<svg version="1.0" xmlns="http://www.w3.org/2000/svg"
 width="1024.000000pt" height="1024.000000pt" viewBox="0 0 1024.000000 1024.000000"
 preserveAspectRatio="xMidYMid meet">

<g transform="translate(0.000000,1024.000000) scale(0.100000,-0.100000)"
fill="#000000" stroke="none">
<path d="M0 5120 l0 -5120 5120 0 5120 0 0 5120 0 5120 -5120 0 -5120 0 0
-5120z m6550 3595 l0 -195 200 0 200 0 0 -425 0 -425 -200 0 -200 0 0 -272 0
-273 -198 2 -197 1 0 76 0 76 -207 0 -208 0 0 195 0 195 -652 0 -653 0 0 -195
0 -195 -592 0 -593 0 0 195 0 195 -205 0 -205 0 0 425 0 425 205 0 205 0 0
195 0 195 1650 0 1650 0 0 -195z m-817 -1637 l-2 -193 -196 0 -195 0 0 -392 0
-393 -227 0 c-126 0 -238 -3 -250 -6 l-23 -6 0 591 0 591 448 0 447 0 -2 -192z
m1617 2 l0 -190 -195 0 -195 0 0 190 0 190 195 0 195 0 0 -190z m-3794 -210
l874 0 2 -392 3 -393 198 -3 197 -2 0 -195 0 -195 399 0 c219 0 426 3 460 6
l61 7 0 388 0 389 203 0 202 0 0 112 0 113 198 3 197 2 0 -310 0 -310 200 0
200 0 0 -200 0 -200 200 0 200 0 0 -195 0 -195 -205 0 -205 0 0 -206 0 -205
-152 3 c-84 2 -354 2 -600 1 l-448 -3 0 -195 0 -195 -650 0 -650 0 0 195 0
195 -390 0 -390 0 0 205 0 205 -205 0 -205 0 0 200 0 200 -405 0 -405 0 0 592
0 591 122 -6 c66 -4 514 -7 994 -7z m-316 -1785 l0 -205 205 0 205 0 0 -195 0
-195 390 0 390 0 0 -195 0 -195 455 0 455 0 0 -810 0 -810 405 0 405 0 0 1005
0 1005 400 0 400 0 0 -200 0 -200 200 0 200 0 0 -196 0 -195 -200 3 -200 3 0
-1205 0 -1205 -200 3 -200 3 0 -196 0 -195 -502 0 -503 0 0 592 0 593 -182 3
-183 2 0 -200 0 -200 -370 0 -370 0 0 -205 0 -205 -197 0 -198 0 3 -195 3
-195 -811 0 -810 0 0 595 0 595 615 0 615 0 0 200 0 200 198 0 197 0 -3 400
-2 400 -200 0 -200 0 0 400 0 400 -205 0 -205 0 0 -200 0 -200 -200 0 -200 0
0 -199 0 -199 405 -7 405 -7 0 -389 0 -388 -187 -3 c-104 -2 -378 -4 -610 -6
l-423 -3 0 201 0 200 -195 0 -195 0 0 800 0 800 200 0 200 0 0 200 0 200 200
0 200 0 0 200 0 200 200 0 200 0 0 -205z m4490 -1790 l0 -395 -185 0 -185 0 0
395 0 395 185 0 185 0 0 -395z"/>
<path d="M3768 1283 c7 -3 16 -2 19 1 4 3 -2 6 -13 5 -11 0 -14 -3 -6 -6z"/>
<path d="M3813 1283 c9 -2 23 -2 30 0 6 3 -1 5 -18 5 -16 0 -22 -2 -12 -5z"/>
<path d="M3893 1283 c20 -2 54 -2 75 0 20 2 3 4 -38 4 -41 0 -58 -2 -37 -4z"/>
</g>
</svg>
